<svg version="1.1" xmlns="http://www.w3.org/2000/svg" xmlns:xlink="http://www.w3.org/1999/xlink" width="808" height="1060"><defs></defs><g><g transform="translate(-38,-74) scale(1,1)"><path fill="#ffffff" stroke="none" d="M 573.2312727272728 175.89 C 573.2312727272728 169.875618528 578.0525956119272 165 584 165 C 589.9474043880728 165 594.7687272727272 169.875618528 594.7687272727272 175.89 C 594.7687272727272 181.90438147199998 589.9474043880728 186.78 584 186.78 C 578.0525956119272 186.78 573.2312727272728 181.90438147199998 573.2312727272728 175.89 Z"></path></g><g transform="translate(-38,-74) scale(1,1)"><path fill="none" stroke="#000000" d="M 573.2312727272728 175.89 C 573.2312727272728 169.875618528 578.0525956119272 165 584 165 C 589.9474043880728 165 594.7687272727272 169.875618528 594.7687272727272 175.89 C 594.7687272727272 181.90438147199998 589.9474043880728 186.78 584 186.78 C 578.0525956119272 186.78 573.2312727272728 181.90438147199998 573.2312727272728 175.89 Z" stroke-miterlimit="10"></path></g><g transform="translate(-38,-74) scale(1,1)"><path fill="none" stroke="#000000" d="M 584 186.78 L 584 208.22" stroke-miterlimit="10"></path></g><g transform="translate(-38,-74) scale(1,1)"><path fill="none" stroke="#000000" d="M 572.5978181818182 194.82 L 595.4021818181818 194.82" stroke-miterlimit="10"></path></g><g transform="translate(-38,-74) scale(1,1)"><path fill="none" stroke="#000000" d="M 584 208.22 L 568.1636363636364 230" stroke-miterlimit="10"></path></g><g transform="translate(-38,-74) scale(1,1)"><path fill="none" stroke="#000000" d="M 584 208.22 L 599.8363636363636 230" stroke-miterlimit="10"></path></g><g transform="translate(-38,-74) scale(1,1)"><path fill="none" stroke="#000000" d="M 540 256 L 628 256" stroke-miterlimit="10"></path></g><g transform="translate(-38,-74) scale(1,1)"><g><path fill="none" stroke="none"></path><text fill="#000000" stroke="none" font-family="Arial" font-size="13px" font-style="normal" font-weight="bold" text-decoration="none" x="563.5" y="250.5">Клиент</text></g></g><g transform="translate(-38,-74) scale(1,1)"><path fill="#C0C0C0" stroke="none" d="M 695 308 C 695 298.6111584 728.1309248 291 769 291 C 809.8690752 291 843 298.6111584 843 308 C 843 317.3888416 809.8690752 325 769 325 C 728.1309248 325 695 317.3888416 695 308 Z" opacity="0.2"></path></g><g transform="translate(-38,-74) scale(1,1)"><path fill="#ffffff" stroke="none" d="M 688 301 C 688 291.6111584 721.1309248 284 762 284 C 802.8690752 284 836 291.6111584 836 301 C 836 310.3888416 802.8690752 318 762 318 C 721.1309248 318 688 310.3888416 688 301 Z"></path></g><g transform="translate(-38,-74) scale(1,1)"><path fill="none" stroke="#000000" d="M 688 301 C 688 291.6111584 721.1309248 284 762 284 C 802.8690752 284 836 291.6111584 836 301 C 836 310.3888416 802.8690752 318 762 318 C 721.1309248 318 688 310.3888416 688 301 Z" stroke-miterlimit="10"></path></g><g transform="translate(-38,-74) scale(1,1)"><g><path fill="none" stroke="none"></path><text fill="#000000" stroke="none" font-family="Arial" font-size="13px" font-style="normal" font-weight="bold" text-decoration="none" x="719" y="308">Сделать заказ</text></g></g><g transform="translate(-38,-74) scale(1,1)"><path fill="none" stroke="#000000" d="M 725 283 L 629 237" stroke-miterlimit="10"></path></g><g transform="translate(-38,-74) scale(1,1)"><path fill="#C0C0C0" stroke="none" d="M 467 336 C 467 326.6111584 499.90706720000003 319 540.5 319 C 581.0929328 319 614 326.6111584 614 336 C 614 345.3888416 581.0929328 353 540.5 353 C 499.90706720000003 353 467 345.3888416 467 336 Z" opacity="0.2"></path></g><g transform="translate(-38,-74) scale(1,1)"><path fill="#ffffff" stroke="none" d="M 460 329 C 460 319.6111584 492.90706720000003 312 533.5 312 C 574.0929328 312 607 319.6111584 607 329 C 607 338.3888416 574.0929328 346 533.5 346 C 492.90706720000003 346 460 338.3888416 460 329 Z"></path></g><g transform="translate(-38,-74) scale(1,1)"><path fill="none" stroke="#000000" d="M 460 329 C 460 319.6111584 492.90706720000003 312 533.5 312 C 574.0929328 312 607 319.6111584 607 329 C 607 338.3888416 574.0929328 346 533.5 346 C 492.90706720000003 346 460 338.3888416 460 329 Z" stroke-miterlimit="10"></path></g><g transform="translate(-38,-74) scale(1,1)"><g><path fill="none" stroke="none"></path><text fill="#000000" stroke="none" font-family="Arial" font-size="13px" font-style="normal" font-weight="bold" text-decoration="none" x="490.5" y="336">Внести оплату</text></g></g><g transform="translate(-38,-74) scale(1,1)"><path fill="none" stroke="#000000" d="M 541 311 L 561 267" stroke-miterlimit="10"></path></g><g transform="translate(-38,-74) scale(1,1)"><path fill="#ffffff" stroke="none" d="M 486.32072727272725 461.68 C 486.32072727272725 456.886167936 490.20656959767274 453 495 453 C 499.79343040232726 453 503.67927272727275 456.886167936 503.67927272727275 461.68 C 503.67927272727275 466.473832064 499.79343040232726 470.36 495 470.36 C 490.20656959767274 470.36 486.32072727272725 466.473832064 486.32072727272725 461.68 Z"></path></g><g transform="translate(-38,-74) scale(1,1)"><path fill="none" stroke="#000000" d="M 486.32072727272725 461.68 C 486.32072727272725 456.886167936 490.20656959767274 453 495 453 C 499.79343040232726 453 503.67927272727275 456.886167936 503.67927272727275 461.68 C 503.67927272727275 466.473832064 499.79343040232726 470.36 495 470.36 C 490.20656959767274 470.36 486.32072727272725 466.473832064 486.32072727272725 461.68 Z" stroke-miterlimit="10"></path></g><g transform="translate(-38,-74) scale(1,1)"><path fill="none" stroke="#000000" d="M 495 470.36 L 495 487.64" stroke-miterlimit="10"></path></g><g transform="translate(-38,-74) scale(1,1)"><path fill="none" stroke="#000000" d="M 485.81018181818183 476.84 L 504.18981818181817 476.84" stroke-miterlimit="10"></path></g><g transform="translate(-38,-74) scale(1,1)"><path fill="none" stroke="#000000" d="M 495 487.64 L 482.23636363636365 505" stroke-miterlimit="10"></path></g><g transform="translate(-38,-74) scale(1,1)"><path fill="none" stroke="#000000" d="M 495 487.64 L 507.76363636363635 505" stroke-miterlimit="10"></path></g><g transform="translate(-38,-74) scale(1,1)"><g><path fill="none" stroke="none"></path><text fill="#000000" stroke="none" font-family="Arial" font-size="13px" font-style="normal" font-weight="bold" text-decoration="none" x="449" y="525.5">Администратор</text></g></g><g transform="translate(-38,-74) scale(1,1)"><path fill="#C0C0C0" stroke="none" d="M 567 617 C 567 602.6405952 613.5623808 591 671 591 C 728.4376192 591 775 602.6405952 775 617 C 775 631.3594048 728.4376192 643 671 643 C 613.5623808 643 567 631.3594048 567 617 Z" opacity="0.2"></path></g><g transform="translate(-38,-74) scale(1,1)"><path fill="#ffffff" stroke="none" d="M 560 610 C 560 595.6405952 606.5623808 584 664 584 C 721.4376192 584 768 595.6405952 768 610 C 768 624.3594048 721.4376192 636 664 636 C 606.5623808 636 560 624.3594048 560 610 Z"></path></g><g transform="translate(-38,-74) scale(1,1)"><path fill="none" stroke="#000000" d="M 560 610 C 560 595.6405952 606.5623808 584 664 584 C 721.4376192 584 768 595.6405952 768 610 C 768 624.3594048 721.4376192 636 664 636 C 606.5623808 636 560 624.3594048 560 610 Z" stroke-miterlimit="10"></path></g><g transform="translate(-38,-74) scale(1,1)"><g><path fill="none" stroke="none"></path><text fill="#000000" stroke="none" font-family="Arial" font-size="13px" font-style="normal" font-weight="bold" text-decoration="none" x="614.5" y="610.5">Изменить статус</text><text fill="#000000" stroke="none" font-family="Arial" font-size="13px" font-style="normal" font-weight="bold" text-decoration="none" x="644.5" y="623.5">заказа</text></g></g><g transform="translate(-38,-74) scale(1,1)"><path fill="#ffffff" stroke="none" d="M 787 251 L 788 251 Q 788 251 788 251 L 788 252 Q 788 252 788 252 L 787 252 Q 787 252 787 252 L 787 251 Q 787 251 787 251 Z"></path></g><g transform="translate(-38,-74) scale(1,1)"><path fill="none" stroke="#000000" d="M 787 251 L 788 251 Q 788 251 788 251 L 788 252 Q 788 252 788 252 L 787 252 Q 787 252 787 252 L 787 251 Q 787 251 787 251 Z" stroke-miterlimit="10"></path></g><g transform="translate(-38,-74) scale(1,1)"><path fill="#ffffff" stroke="none" d="M 248.82072727272728 341.68 C 248.82072727272728 336.886167936 252.7065695976727 333 257.5 333 C 262.29343040232726 333 266.17927272727275 336.886167936 266.17927272727275 341.68 C 266.17927272727275 346.473832064 262.29343040232726 350.36 257.5 350.36 C 252.7065695976727 350.36 248.82072727272728 346.473832064 248.82072727272728 341.68 Z"></path></g><g transform="translate(-38,-74) scale(1,1)"><path fill="none" stroke="#000000" d="M 248.82072727272728 341.68 C 248.82072727272728 336.886167936 252.7065695976727 333 257.5 333 C 262.29343040232726 333 266.17927272727275 336.886167936 266.17927272727275 341.68 C 266.17927272727275 346.473832064 262.29343040232726 350.36 257.5 350.36 C 252.7065695976727 350.36 248.82072727272728 346.473832064 248.82072727272728 341.68 Z" stroke-miterlimit="10"></path></g><g transform="translate(-38,-74) scale(1,1)"><path fill="none" stroke="#000000" d="M 257.5 350.36 L 257.5 367.64" stroke-miterlimit="10"></path></g><g transform="translate(-38,-74) scale(1,1)"><path fill="none" stroke="#000000" d="M 248.31018181818183 356.84 L 266.68981818181817 356.84" stroke-miterlimit="10"></path></g><g transform="translate(-38,-74) scale(1,1)"><path fill="none" stroke="#000000" d="M 257.5 367.64 L 244.73636363636365 385" stroke-miterlimit="10"></path></g><g transform="translate(-38,-74) scale(1,1)"><path fill="none" stroke="#000000" d="M 257.5 367.64 L 270.26363636363635 385" stroke-miterlimit="10"></path></g><g transform="translate(-38,-74) scale(1,1)"><g><path fill="none" stroke="none"></path><text fill="#000000" stroke="none" font-family="Arial" font-size="13px" font-style="italic" font-weight="bold" text-decoration="none" x="213" y="405.5">Пользователь</text><text fill="#000000" stroke="none" font-family="Arial" font-size="13px" font-style="italic" font-weight="bold" text-decoration="none" x="228.5" y="418.5">системы</text></g></g><g transform="translate(-38,-74) scale(1,1)"><path fill="#C0C0C0" stroke="none" d="M 183 116 C 183 106.6111584 219.71264639999998 99 265 99 C 310.2873536 99 347 106.6111584 347 116 C 347 125.3888416 310.2873536 133 265 133 C 219.71264639999998 133 183 125.3888416 183 116 Z" opacity="0.2"></path></g><g transform="translate(-38,-74) scale(1,1)"><path fill="#ffffff" stroke="none" d="M 176 109 C 176 99.6111584 212.71264639999998 92 258 92 C 303.2873536 92 340 99.6111584 340 109 C 340 118.3888416 303.2873536 126 258 126 C 212.71264639999998 126 176 118.3888416 176 109 Z"></path></g><g transform="translate(-38,-74) scale(1,1)"><path fill="none" stroke="#000000" d="M 176 109 C 176 99.6111584 212.71264639999998 92 258 92 C 303.2873536 92 340 99.6111584 340 109 C 340 118.3888416 303.2873536 126 258 126 C 212.71264639999998 126 176 118.3888416 176 109 Z" stroke-miterlimit="10"></path></g><g transform="translate(-38,-74) scale(1,1)"><g><path fill="none" stroke="none"></path><text fill="#000000" stroke="none" font-family="Arial" font-size="13px" font-style="normal" font-weight="bold" text-decoration="none" x="208.5" y="116">Войти в систему</text></g></g><g transform="translate(-38,-74) scale(1,1)"><path fill="none" stroke="#000000" d="M 258 127 L 257 331" stroke-miterlimit="10"></path></g><g transform="translate(-38,-74) scale(1,1)"><path fill="none" stroke="#000000" d="M 539 237 L 340 337" stroke-miterlimit="10"></path></g><g transform="translate(-38,-74) scale(1,1)"><path fill="#FFFFFF" stroke="none" d="M 354.38103584850444 320.3511019006053 L 340 337 L 361.9414767143302 335.39637922359844"></path></g><g transform="translate(-38,-74) scale(1,1)"><path fill="none" stroke="#000000" d="M 354.38103584850444 320.3511019006053 L 340 337 L 361.9414767143302 335.39637922359844 L 354.38103584850444 320.3511019006053" stroke-miterlimit="10"></path></g><g transform="translate(-38,-74) scale(1,1)"><path fill="none" stroke="#000000" d="M 439 519 L 347 564" stroke-miterlimit="10"></path></g><g transform="translate(-38,-74) scale(1,1)"><path fill="#FFFFFF" stroke="none" d="M 361.55903579155336 547.5065322985047 L 347 564 L 368.95743579275364 562.6321500787365"></path></g><g transform="translate(-38,-74) scale(1,1)"><path fill="none" stroke="#000000" d="M 361.55903579155336 547.5065322985047 L 347 564 L 368.95743579275364 562.6321500787365 L 361.55903579155336 547.5065322985047" stroke-miterlimit="10"></path></g><g transform="translate(-38,-74) scale(1,1)"><path fill="#ffffff" stroke="none" d="M 252.32072727272728 569.6800000000001 C 252.32072727272728 564.8861679360001 256.20656959767274 561 261 561 C 265.79343040232726 561 269.67927272727275 564.8861679360001 269.67927272727275 569.6800000000001 C 269.67927272727275 574.473832064 265.79343040232726 578.36 261 578.36 C 256.20656959767274 578.36 252.32072727272728 574.473832064 252.32072727272728 569.6800000000001 Z"></path></g><g transform="translate(-38,-74) scale(1,1)"><path fill="none" stroke="#000000" d="M 252.32072727272728 569.6800000000001 C 252.32072727272728 564.8861679360001 256.20656959767274 561 261 561 C 265.79343040232726 561 269.67927272727275 564.8861679360001 269.67927272727275 569.6800000000001 C 269.67927272727275 574.473832064 265.79343040232726 578.36 261 578.36 C 256.20656959767274 578.36 252.32072727272728 574.473832064 252.32072727272728 569.6800000000001 Z" stroke-miterlimit="10"></path></g><g transform="translate(-38,-74) scale(1,1)"><path fill="none" stroke="#000000" d="M 261 578.36 L 261 595.64" stroke-miterlimit="10"></path></g><g transform="translate(-38,-74) scale(1,1)"><path fill="none" stroke="#000000" d="M 251.81018181818183 584.84 L 270.18981818181817 584.84" stroke-miterlimit="10"></path></g><g transform="translate(-38,-74) scale(1,1)"><path fill="none" stroke="#000000" d="M 261 595.64 L 248.23636363636365 613" stroke-miterlimit="10"></path></g><g transform="translate(-38,-74) scale(1,1)"><path fill="none" stroke="#000000" d="M 261 595.64 L 273.76363636363635 613" stroke-miterlimit="10"></path></g><g transform="translate(-38,-74) scale(1,1)"><g><path fill="none" stroke="none"></path><text fill="#000000" stroke="none" font-family="Arial" font-size="13px" font-style="italic" font-weight="bold" text-decoration="none" x="209.5" y="633.5">Администратор</text><text fill="#000000" stroke="none" font-family="Arial" font-size="13px" font-style="italic" font-weight="bold" text-decoration="none" x="232" y="646.5">системы</text></g></g><g transform="translate(-38,-74) scale(1,1)"><path fill="none" stroke="#000000" d="M 260 559 L 258 425" stroke-miterlimit="10"></path></g><g transform="translate(-38,-74) scale(1,1)"><path fill="#FFFFFF" stroke="none" d="M 266.72142757261645 445.1974429345797 L 258 425 L 249.88523171655478 445.4487294398941"></path></g><g transform="translate(-38,-74) scale(1,1)"><path fill="none" stroke="#000000" d="M 266.72142757261645 445.1974429345797 L 258 425 L 249.88523171655478 445.4487294398941 L 266.72142757261645 445.1974429345797" stroke-miterlimit="10"></path></g><g transform="translate(-38,-74) scale(1,1)"><path fill="none" stroke="#000000" d="M 347 607 L 559 609" stroke-miterlimit="10"></path></g><g transform="translate(-38,-74) scale(1,1)"><path fill="none" stroke="#000000" d="M 756 319 L 673 583" stroke-miterlimit="10" stroke-dasharray="3"></path></g><g transform="translate(-38,-74) scale(1,1)"><path fill="none" stroke="#000000" d="M 672.0322659439809 572.0426512879793 L 673 583 L 680.0637242646992 574.5676931085083" stroke-miterlimit="10"></path></g><g transform="translate(-38,-74) scale(1,1)"><g><path fill="none" stroke="none"></path><text fill="#000000" stroke="none" font-family="Arial" font-size="13px" font-style="normal" font-weight="normal" text-decoration="none" x="715" y="466">«include»</text></g></g><g transform="translate(-38,-74) scale(1,1)"><path fill="#C0C0C0" stroke="none" d="M 379 117 C 379 102.6405952 424.4430928 91 480.5 91 C 536.5569072 91 582 102.6405952 582 117 C 582 131.3594048 536.5569072 143 480.5 143 C 424.4430928 143 379 131.3594048 379 117 Z" opacity="0.2"></path></g><g transform="translate(-38,-74) scale(1,1)"><path fill="#ffffff" stroke="none" d="M 372 110 C 372 95.6405952 417.4430928 84 473.5 84 C 529.5569072 84 575 95.6405952 575 110 C 575 124.3594048 529.5569072 136 473.5 136 C 417.4430928 136 372 124.3594048 372 110 Z"></path></g><g transform="translate(-38,-74) scale(1,1)"><path fill="none" stroke="#000000" d="M 372 110 C 372 95.6405952 417.4430928 84 473.5 84 C 529.5569072 84 575 95.6405952 575 110 C 575 124.3594048 529.5569072 136 473.5 136 C 417.4430928 136 372 124.3594048 372 110 Z" stroke-miterlimit="10"></path></g><g transform="translate(-38,-74) scale(1,1)"><g><path fill="none" stroke="none"></path><text fill="#000000" stroke="none" font-family="Arial" font-size="13px" font-style="normal" font-weight="bold" text-decoration="none" x="428" y="110.5">Просматривать</text><text fill="#000000" stroke="none" font-family="Arial" font-size="13px" font-style="normal" font-weight="bold" text-decoration="none" x="437" y="123.5">свои заказы</text></g></g><g transform="translate(-38,-74) scale(1,1)"><path fill="none" stroke="#000000" d="M 295 331 L 451 137" stroke-miterlimit="10"></path></g><g transform="translate(-38,-74) scale(1,1)"><path fill="#C0C0C0" stroke="none" d="M 403 713 C 403 698.6405952 437.697928 687 480.5 687 C 523.302072 687 558 698.6405952 558 713 C 558 727.3594048 523.302072 739 480.5 739 C 437.697928 739 403 727.3594048 403 713 Z" opacity="0.2"></path></g><g transform="translate(-38,-74) scale(1,1)"><path fill="#ffffff" stroke="none" d="M 396 706 C 396 691.6405952 430.697928 680 473.5 680 C 516.302072 680 551 691.6405952 551 706 C 551 720.3594048 516.302072 732 473.5 732 C 430.697928 732 396 720.3594048 396 706 Z"></path></g><g transform="translate(-38,-74) scale(1,1)"><path fill="none" stroke="#000000" d="M 396 706 C 396 691.6405952 430.697928 680 473.5 680 C 516.302072 680 551 691.6405952 551 706 C 551 720.3594048 516.302072 732 473.5 732 C 430.697928 732 396 720.3594048 396 706 Z" stroke-miterlimit="10"></path></g><g transform="translate(-38,-74) scale(1,1)"><g><path fill="none" stroke="none"></path><text fill="#000000" stroke="none" font-family="Arial" font-size="13px" font-style="normal" font-weight="bold" text-decoration="none" x="428" y="706.5">Просматривать</text><text fill="#000000" stroke="none" font-family="Arial" font-size="13px" font-style="normal" font-weight="bold" text-decoration="none" x="440.5" y="719.5">все заказы</text></g></g><g transform="translate(-38,-74) scale(1,1)"><path fill="none" stroke="#000000" d="M 347 647 L 416 679" stroke-miterlimit="10"></path></g><g transform="translate(-38,-74) scale(1,1)"><path fill="#ffffff" stroke="none" d="M 367.82072727272725 821.6800000000001 C 367.82072727272725 816.8861679360001 371.70656959767274 813 376.5 813 C 381.29343040232726 813 385.17927272727275 816.8861679360001 385.17927272727275 821.6800000000001 C 385.17927272727275 826.473832064 381.29343040232726 830.36 376.5 830.36 C 371.70656959767274 830.36 367.82072727272725 826.473832064 367.82072727272725 821.6800000000001 Z"></path></g><g transform="translate(-38,-74) scale(1,1)"><path fill="none" stroke="#000000" d="M 367.82072727272725 821.6800000000001 C 367.82072727272725 816.8861679360001 371.70656959767274 813 376.5 813 C 381.29343040232726 813 385.17927272727275 816.8861679360001 385.17927272727275 821.6800000000001 C 385.17927272727275 826.473832064 381.29343040232726 830.36 376.5 830.36 C 371.70656959767274 830.36 367.82072727272725 826.473832064 367.82072727272725 821.6800000000001 Z" stroke-miterlimit="10"></path></g><g transform="translate(-38,-74) scale(1,1)"><path fill="none" stroke="#000000" d="M 376.5 830.36 L 376.5 847.64" stroke-miterlimit="10"></path></g><g transform="translate(-38,-74) scale(1,1)"><path fill="none" stroke="#000000" d="M 367.31018181818183 836.84 L 385.68981818181817 836.84" stroke-miterlimit="10"></path></g><g transform="translate(-38,-74) scale(1,1)"><path fill="none" stroke="#000000" d="M 376.5 847.64 L 363.73636363636365 865" stroke-miterlimit="10"></path></g><g transform="translate(-38,-74) scale(1,1)"><path fill="none" stroke="#000000" d="M 376.5 847.64 L 389.26363636363635 865" stroke-miterlimit="10"></path></g><g transform="translate(-38,-74) scale(1,1)"><g><path fill="none" stroke="none"></path><text fill="#000000" stroke="none" font-family="Arial" font-size="13px" font-style="normal" font-weight="bold" text-decoration="none" x="349" y="885.5">Работник</text><text fill="#000000" stroke="none" font-family="Arial" font-size="13px" font-style="normal" font-weight="bold" text-decoration="none" x="352" y="898.5">сервиса</text></g></g><g transform="translate(-38,-74) scale(1,1)"><path fill="none" stroke="#000000" d="M 355 811 L 282 653" stroke-miterlimit="10"></path></g><g transform="translate(-38,-74) scale(1,1)"><path fill="#FFFFFF" stroke="none" d="M 298.16763478563297 667.9200397264348 L 282 653 L 282.8821829265339 674.9823054588032"></path></g><g transform="translate(-38,-74) scale(1,1)"><path fill="none" stroke="#000000" d="M 298.16763478563297 667.9200397264348 L 282 653 L 282.8821829265339 674.9823054588032 L 298.16763478563297 667.9200397264348" stroke-miterlimit="10"></path></g><g transform="translate(-38,-74) scale(1,1)"><path fill="#C0C0C0" stroke="none" d="M 599 881 C 599 866.6405952 625.1913392 855 657.5 855 C 689.8086608 855 716 866.6405952 716 881 C 716 895.3594048 689.8086608 907 657.5 907 C 625.1913392 907 599 895.3594048 599 881 Z" opacity="0.2"></path></g><g transform="translate(-38,-74) scale(1,1)"><path fill="#ffffff" stroke="none" d="M 592 874 C 592 859.6405952 618.1913392 848 650.5 848 C 682.8086608 848 709 859.6405952 709 874 C 709 888.3594048 682.8086608 900 650.5 900 C 618.1913392 900 592 888.3594048 592 874 Z"></path></g><g transform="translate(-38,-74) scale(1,1)"><path fill="none" stroke="#000000" d="M 592 874 C 592 859.6405952 618.1913392 848 650.5 848 C 682.8086608 848 709 859.6405952 709 874 C 709 888.3594048 682.8086608 900 650.5 900 C 618.1913392 900 592 888.3594048 592 874 Z" stroke-miterlimit="10"></path></g><g transform="translate(-38,-74) scale(1,1)"><g><path fill="none" stroke="none"></path><text fill="#000000" stroke="none" font-family="Arial" font-size="13px" font-style="normal" font-weight="bold" text-decoration="none" x="618" y="874.5">Выполнить</text><text fill="#000000" stroke="none" font-family="Arial" font-size="13px" font-style="normal" font-weight="bold" text-decoration="none" x="634.5" y="887.5">заказ</text></g></g><g transform="translate(-38,-74) scale(1,1)"><path fill="none" stroke="#000000" d="M 442 862 L 591 871" stroke-miterlimit="10"></path></g><g transform="translate(-38,-74) scale(1,1)"><path fill="none" stroke="#000000" d="M 651 847 L 663 637" stroke-miterlimit="10" stroke-dasharray="3"></path></g><g transform="translate(-38,-74) scale(1,1)"><path fill="none" stroke="#000000" d="M 666.6228833874167 647.3862753651721 L 663 637 L 658.2175596687064 646.9059711526744" stroke-miterlimit="10"></path></g><g transform="translate(-38,-74) scale(1,1)"><g><path fill="none" stroke="none"></path><text fill="#000000" stroke="none" font-family="Arial" font-size="13px" font-style="normal" font-weight="normal" text-decoration="none" x="600" y="747">«include»</text></g></g><g transform="translate(-38,-74) scale(1,1)"><path fill="#ffffff" stroke="none" d="M 345.32072727272725 1041.6799999999998 C 345.32072727272725 1036.8861679359998 349.20656959767274 1033 354 1033 C 358.79343040232726 1033 362.67927272727275 1036.8861679359998 362.67927272727275 1041.6799999999998 C 362.67927272727275 1046.473832064 358.79343040232726 1050.36 354 1050.36 C 349.20656959767274 1050.36 345.32072727272725 1046.473832064 345.32072727272725 1041.6799999999998 Z"></path></g><g transform="translate(-38,-74) scale(1,1)"><path fill="none" stroke="#000000" d="M 345.32072727272725 1041.6799999999998 C 345.32072727272725 1036.8861679359998 349.20656959767274 1033 354 1033 C 358.79343040232726 1033 362.67927272727275 1036.8861679359998 362.67927272727275 1041.6799999999998 C 362.67927272727275 1046.473832064 358.79343040232726 1050.36 354 1050.36 C 349.20656959767274 1050.36 345.32072727272725 1046.473832064 345.32072727272725 1041.6799999999998 Z" stroke-miterlimit="10"></path></g><g transform="translate(-38,-74) scale(1,1)"><path fill="none" stroke="#000000" d="M 354 1050.36 L 354 1067.64" stroke-miterlimit="10"></path></g><g transform="translate(-38,-74) scale(1,1)"><path fill="none" stroke="#000000" d="M 344.81018181818183 1056.84 L 363.18981818181817 1056.84" stroke-miterlimit="10"></path></g><g transform="translate(-38,-74) scale(1,1)"><path fill="none" stroke="#000000" d="M 354 1067.64 L 341.23636363636365 1085" stroke-miterlimit="10"></path></g><g transform="translate(-38,-74) scale(1,1)"><path fill="none" stroke="#000000" d="M 354 1067.64 L 366.76363636363635 1085" stroke-miterlimit="10"></path></g><g transform="translate(-38,-74) scale(1,1)"><g><path fill="none" stroke="none"></path><text fill="#000000" stroke="none" font-family="Arial" font-size="13px" font-style="normal" font-weight="bold" text-decoration="none" x="327.5" y="1105.5">Старший</text><text fill="#000000" stroke="none" font-family="Arial" font-size="13px" font-style="normal" font-weight="bold" text-decoration="none" x="333" y="1118.5">мастер</text></g></g><g transform="translate(-38,-74) scale(1,1)"><path fill="none" stroke="#000000" d="M 359 1031 L 371 905" stroke-miterlimit="10"></path></g><g transform="translate(-38,-74) scale(1,1)"><path fill="#FFFFFF" stroke="none" d="M 377.4540837719862 926.0319947381171 L 371 905 L 360.6918603003151 924.4355925027198"></path></g><g transform="translate(-38,-74) scale(1,1)"><path fill="none" stroke="#000000" d="M 377.4540837719862 926.0319947381171 L 371 905 L 360.6918603003151 924.4355925027198 L 377.4540837719862 926.0319947381171" stroke-miterlimit="10"></path></g><g transform="translate(-38,-74) scale(1,1)"><path fill="#C0C0C0" stroke="none" d="M 575 1034.5 C 575 1014.8938896 609.9217856 999 653 999 C 696.0782144 999 731 1014.8938896 731 1034.5 C 731 1054.1061104 696.0782144 1070 653 1070 C 609.9217856 1070 575 1054.1061104 575 1034.5 Z" opacity="0.2"></path></g><g transform="translate(-38,-74) scale(1,1)"><path fill="#ffffff" stroke="none" d="M 568 1027.5 C 568 1007.8938896 602.9217856 992 646 992 C 689.0782144 992 724 1007.8938896 724 1027.5 C 724 1047.1061104 689.0782144 1063 646 1063 C 602.9217856 1063 568 1047.1061104 568 1027.5 Z"></path></g><g transform="translate(-38,-74) scale(1,1)"><path fill="none" stroke="#000000" d="M 568 1027.5 C 568 1007.8938896 602.9217856 992 646 992 C 689.0782144 992 724 1007.8938896 724 1027.5 C 724 1047.1061104 689.0782144 1063 646 1063 C 602.9217856 1063 568 1047.1061104 568 1027.5 Z" stroke-miterlimit="10"></path></g><g transform="translate(-38,-74) scale(1,1)"><g><path fill="none" stroke="none"></path><text fill="#000000" stroke="none" font-family="Arial" font-size="13px" font-style="normal" font-weight="bold" text-decoration="none" x="621" y="1021.5">Оценить</text><text fill="#000000" stroke="none" font-family="Arial" font-size="13px" font-style="normal" font-weight="bold" text-decoration="none" x="615.5" y="1034.5">стоимость</text><text fill="#000000" stroke="none" font-family="Arial" font-size="13px" font-style="normal" font-weight="bold" text-decoration="none" x="629.5" y="1047.5">работ</text></g></g><g transform="translate(-38,-74) scale(1,1)"><path fill="none" stroke="#000000" d="M 413 1068 L 567 1041" stroke-miterlimit="10"></path></g><g transform="translate(-38,-74) scale(1,1)"><path fill="#ffffff" stroke="none" d="M 99.82072727272727 825.6800000000001 C 99.82072727272727 820.8861679360001 103.70656959767273 817 108.5 817 C 113.29343040232727 817 117.17927272727273 820.8861679360001 117.17927272727273 825.6800000000001 C 117.17927272727273 830.473832064 113.29343040232727 834.36 108.5 834.36 C 103.70656959767273 834.36 99.82072727272727 830.473832064 99.82072727272727 825.6800000000001 Z"></path></g><g transform="translate(-38,-74) scale(1,1)"><path fill="none" stroke="#000000" d="M 99.82072727272727 825.6800000000001 C 99.82072727272727 820.8861679360001 103.70656959767273 817 108.5 817 C 113.29343040232727 817 117.17927272727273 820.8861679360001 117.17927272727273 825.6800000000001 C 117.17927272727273 830.473832064 113.29343040232727 834.36 108.5 834.36 C 103.70656959767273 834.36 99.82072727272727 830.473832064 99.82072727272727 825.6800000000001 Z" stroke-miterlimit="10"></path></g><g transform="translate(-38,-74) scale(1,1)"><path fill="none" stroke="#000000" d="M 108.5 834.36 L 108.5 851.64" stroke-miterlimit="10"></path></g><g transform="translate(-38,-74) scale(1,1)"><path fill="none" stroke="#000000" d="M 99.31018181818182 840.84 L 117.68981818181818 840.84" stroke-miterlimit="10"></path></g><g transform="translate(-38,-74) scale(1,1)"><path fill="none" stroke="#000000" d="M 108.5 851.64 L 95.73636363636363 869" stroke-miterlimit="10"></path></g><g transform="translate(-38,-74) scale(1,1)"><path fill="none" stroke="#000000" d="M 108.5 851.64 L 121.26363636363637 869" stroke-miterlimit="10"></path></g><g transform="translate(-38,-74) scale(1,1)"><g><path fill="none" stroke="none"></path><text fill="#000000" stroke="none" font-family="Arial" font-size="13px" font-style="normal" font-weight="bold" text-decoration="none" x="81" y="889.5">Работник</text><text fill="#000000" stroke="none" font-family="Arial" font-size="13px" font-style="normal" font-weight="bold" text-decoration="none" x="87.5" y="902.5">склада</text></g></g><g transform="translate(-38,-74) scale(1,1)"><path fill="none" stroke="#000000" d="M 136 815 L 233 653" stroke-miterlimit="10"></path></g><g transform="translate(-38,-74) scale(1,1)"><path fill="#FFFFFF" stroke="none" d="M 229.7817227800968 674.7633336540121 L 233 653 L 215.33533354609096 666.1133351620456"></path></g><g transform="translate(-38,-74) scale(1,1)"><path fill="none" stroke="#000000" d="M 229.7817227800968 674.7633336540121 L 233 653 L 215.33533354609096 666.1133351620456 L 229.7817227800968 674.7633336540121" stroke-miterlimit="10"></path></g><g transform="translate(-38,-74) scale(1,1)"><path fill="#C0C0C0" stroke="none" d="M 123 1050.5 C 123 1030.8938896 159.71264639999998 1015 205 1015 C 250.28735360000002 1015 287 1030.8938896 287 1050.5 C 287 1070.1061104 250.28735360000002 1086 205 1086 C 159.71264639999998 1086 123 1070.1061104 123 1050.5 Z" opacity="0.2"></path></g><g transform="translate(-38,-74) scale(1,1)"><path fill="#ffffff" stroke="none" d="M 116 1043.5 C 116 1023.8938896 152.71264639999998 1008 198 1008 C 243.28735360000002 1008 280 1023.8938896 280 1043.5 C 280 1063.1061104 243.28735360000002 1079 198 1079 C 152.71264639999998 1079 116 1063.1061104 116 1043.5 Z"></path></g><g transform="translate(-38,-74) scale(1,1)"><path fill="none" stroke="#000000" d="M 116 1043.5 C 116 1023.8938896 152.71264639999998 1008 198 1008 C 243.28735360000002 1008 280 1023.8938896 280 1043.5 C 280 1063.1061104 243.28735360000002 1079 198 1079 C 152.71264639999998 1079 116 1063.1061104 116 1043.5 Z" stroke-miterlimit="10"></path></g><g transform="translate(-38,-74) scale(1,1)"><g><path fill="none" stroke="none"></path><text fill="#000000" stroke="none" font-family="Arial" font-size="13px" font-style="normal" font-weight="bold" text-decoration="none" x="154" y="1037.5">Сформировать</text><text fill="#000000" stroke="none" font-family="Arial" font-size="13px" font-style="normal" font-weight="bold" text-decoration="none" x="168.5" y="1050.5">запрос на</text><text fill="#000000" stroke="none" font-family="Arial" font-size="13px" font-style="normal" font-weight="bold" text-decoration="none" x="171.5" y="1063.5">запчасти</text></g></g><g transform="translate(-38,-74) scale(1,1)"><path fill="none" stroke="#000000" d="M 233 1007 L 331 905" stroke-miterlimit="10"></path></g><g transform="translate(-38,-74) scale(1,1)"><path fill="none" stroke="#000000" d="M 131 909 L 180 1007" stroke-miterlimit="10"></path></g><g transform="translate(-38,-74) scale(1,1)"><g><path fill="none" stroke="none"></path><text fill="#000000" stroke="none" font-family="Arial" font-size="13px" font-style="normal" font-weight="normal" text-decoration="none" x="143" y="951">«выполнить»</text></g></g><g transform="translate(-38,-74) scale(1,1)"><path fill="none" stroke="#000000" d="M 504 451 L 529 347" stroke-miterlimit="10"></path></g><g transform="translate(-38,-74) scale(1,1)"><g><path fill="none" stroke="none"></path><text fill="#000000" stroke="none" font-family="Arial" font-size="13px" font-style="normal" font-weight="normal" text-decoration="none" x="456" y="398">«принять»</text></g></g><g transform="translate(-38,-74) scale(1,1)"><path fill="none" stroke="#000000" d="M 551 451 L 737 319" stroke-miterlimit="10"></path></g><g transform="translate(-38,-74) scale(1,1)"><g><path fill="none" stroke="none"></path><text fill="#000000" stroke="none" font-family="Arial" font-size="13px" font-style="normal" font-weight="normal" text-decoration="none" x="568" y="376">«подтвердить»</text></g></g></g></svg>